# xmcd
#
# Track frame offsets: 
#        150
#        16608
#        32093
#        45996
#        64595
#        79409
#        93253
#        111737
#        123476
#        135635
#
# Disc length: 2135 seconds
#
# Revision: 0
# Processed by: cddbd v1.5.2PL0 Copyright (c) Steve Scherf et al.
# Submitted via: ExactAudioCopy v0.99pb4
#
DISCID=7d08550a
DTITLE=Brittany Reilly - Goog Old Country Sound
DYEAR=2008
DGENRE=Country
TTITLE0=Good Old Country Sound
TTITLE1=Night in Boise
TTITLE2=Ash Grove
TTITLE3=Hard Times Knockin At My Door
TTITLE4=Rockabilly Rhythm
TTITLE5=Banks of the Suwannee
TTITLE6=Another Fight
TTITLE7=Country Cream
TTITLE8=Hook It
TTITLE9=Sun Shines On Me
EXTD=
EXTT0=
EXTT1=
EXTT2=
EXTT3=
EXTT4=
EXTT5=
EXTT6=
EXTT7=
EXTT8=
EXTT9=
PLAYORDER=
